<svg xmlns="http://www.w3.org/2000/svg" version="1.1" xmlns:xlink="http://www.w3.org/1999/xlink" width="1000" height="1000"><style>
    #light-icon {
      display: inline;
    }
    #dark-icon {
      display: none;
    }

    @media (prefers-color-scheme: dark) {
      #light-icon {
        display: none;
      }
      #dark-icon {
        display: inline;
      }
    }
  </style><g id="light-icon"><svg xmlns="http://www.w3.org/2000/svg" version="1.1" xmlns:xlink="http://www.w3.org/1999/xlink" width="1000" height="1000"><g clip-path="url(#SvgjsClipPath1205)"><rect width="1000" height="1000" fill="#121212"></rect><g transform="matrix(3.8461538461538463,0,0,3.8461538461538463,100,253.84615384615384)"><svg xmlns="http://www.w3.org/2000/svg" viewBox="0 0 208 128" xml:space="preserve" width="208" height="128"><path fill="none" stroke="#db8fbe" stroke-width="10" d="M15 5h178a10 10 0 0 1 10 10v98a10 10 0 0 1-10 10H15a10 10 0 0 1-10-10V15A10 10 0 0 1 15 5z"></path><path fill="#db8fbe" d="M30 98V30h20l20 25 20-25h20v68H90V59L70 84 50 59v39H30zm125 0-30-33h20V30h20v35h20l-30 33z"></path></svg></g></g><defs><clipPath id="SvgjsClipPath1205"><rect width="1000" height="1000" x="0" y="0" rx="50" ry="50"></rect></clipPath></defs></svg></g><g id="dark-icon"><svg xmlns="http://www.w3.org/2000/svg" version="1.1" xmlns:xlink="http://www.w3.org/1999/xlink" width="1000" height="1000"><g><g transform="matrix(4.8076923076923075,0,0,4.8076923076923075,0,192.30769230769232)"><svg xmlns="http://www.w3.org/2000/svg" viewBox="0 0 208 128" xml:space="preserve" width="208" height="128"><path fill="none" stroke="#db8fbe" stroke-width="10" d="M15 5h178a10 10 0 0 1 10 10v98a10 10 0 0 1-10 10H15a10 10 0 0 1-10-10V15A10 10 0 0 1 15 5z"></path><path fill="#db8fbe" d="M30 98V30h20l20 25 20-25h20v68H90V59L70 84 50 59v39H30zm125 0-30-33h20V30h20v35h20l-30 33z"></path></svg></g></g></svg></g></svg>