<?xml version="1.0" standalone="no"?>
<!DOCTYPE svg PUBLIC "-//W3C//DTD SVG 20010904//EN"
 "http://www.w3.org/TR/2001/REC-SVG-20010904/DTD/svg10.dtd">
<svg version="1.0" xmlns="http://www.w3.org/2000/svg"
 width="700.000000pt" height="700.000000pt" viewBox="0 0 700.000000 700.000000"
 preserveAspectRatio="xMidYMid meet">
<metadata>
Created by potrace 1.14, written by Peter Selinger 2001-2017
</metadata>
<g transform="translate(0.000000,700.000000) scale(0.100000,-0.100000)"
fill="#000000" stroke="none">
<path d="M1457 5834 c-1 -1 -38 -4 -82 -7 -129 -10 -243 -47 -370 -121 -82
-48 -225 -186 -280 -270 -44 -68 -97 -189 -114 -261 -6 -27 -14 -61 -18 -75
-9 -38 -11 -3116 -1 -3179 43 -285 221 -532 474 -659 62 -31 164 -67 219 -77
17 -3 46 -8 65 -12 46 -8 4162 -10 4261 -2 354 30 653 267 763 605 43 131 42
127 41 1754 -2 1530 -2 1556 -23 1630 -30 112 -56 173 -108 257 -109 175 -271
303 -469 371 -60 21 -77 25 -164 38 -35 6 -4187 13 -4194 8z m4187 -604 c71
-27 129 -83 163 -156 l27 -59 0 -1515 0 -1515 -26 -57 c-32 -69 -77 -116 -143
-148 l-50 -25 -2100 -3 c-2329 -2 -2145 -8 -2239 64 -31 23 -55 54 -77 99
l-32 66 0 1519 -1 1518 33 66 c37 75 88 121 165 148 48 16 172 17 2138 18
2078 0 2088 0 2142 -20z"/>
<path d="M1970 4656 c-85 -22 -147 -73 -192 -158 l-23 -43 0 -955 0 -955 22
-43 c134 -253 503 -204 550 73 4 28 8 285 8 572 l-1 522 61 -58 c88 -85 132
-105 230 -105 99 0 144 20 230 105 l61 59 -1 -517 c0 -285 3 -543 8 -573 21
-142 143 -245 287 -244 112 1 206 59 258 158 l27 51 0 955 0 955 -27 51 c-66
126 -206 186 -343 146 -68 -19 -84 -33 -304 -252 -105 -104 -194 -190 -197
-190 -4 0 -97 90 -207 201 -133 133 -217 209 -248 225 -56 28 -137 36 -199 20z"/>
<path d="M4580 4652 c-84 -28 -143 -82 -182 -169 -22 -47 -22 -57 -23 -593 0
-300 -4 -544 -8 -543 -5 1 -32 24 -61 51 -80 76 -125 96 -221 96 -92 -1 -136
-16 -196 -71 -64 -58 -93 -123 -93 -213 -1 -123 5 -131 363 -490 174 -174 334
-328 356 -342 52 -32 119 -48 179 -42 102 10 129 31 472 376 208 208 330 339
345 368 33 64 34 196 1 257 -54 103 -145 157 -262 158 -95 0 -151 -25 -232
-106 -49 -49 -58 -54 -58 -36 -1 12 -2 263 -3 557 -2 521 -3 536 -23 581 -64
137 -216 206 -354 161z"/>
</g>
</svg>
